<svg width="127" height="87" viewBox="0 0 127 87" fill="none" xmlns="http://www.w3.org/2000/svg">
<path fill-rule="evenodd" clip-rule="evenodd" d="M24 85C11.8497 85 2 75.3741 2 63.5C2 51.6259 11.8497 42 24 42C24.5167 42 25.0292 42.0174 25.537 42.0517C25.1842 40.0878 25 38.0654 25 36C25 17.2223 40.2223 2 59 2C73.991 2 86.7161 11.702 91.2386 25.1695C92.3101 25.0575 93.3983 25 94.5 25C111.345 25 125 38.4315 125 55C125 70.7406 112.675 83.7273 97 84.9782V85H40.5078M35.996 85H29.0314Z" fill="white"/>
<path d="M24 86.25C24.6904 86.25 25.25 85.6904 25.25 85C25.25 84.3096 24.6904 83.75 24 83.75V86.25ZM25.537 42.0517L25.4529 43.2988L27.0504 43.4066L26.7673 41.8306L25.537 42.0517ZM91.2386 25.1695L90.0536 25.5674L90.3725 26.5169L91.3686 26.4127L91.2386 25.1695ZM97 84.9782L96.9006 83.7321L95.75 83.824V84.9782H97ZM97 85V86.25H98.25V85H97ZM40.5078 83.75C39.8175 83.75 39.2578 84.3096 39.2578 85C39.2578 85.6904 39.8175 86.25 40.5078 86.25V83.75ZM35.996 86.25C36.6863 86.25 37.246 85.6904 37.246 85C37.246 84.3096 36.6863 83.75 35.996 83.75V86.25ZM29.0314 83.75C28.341 83.75 27.7814 84.3096 27.7814 85C27.7814 85.6904 28.341 86.25 29.0314 86.25V83.75ZM24 83.75C12.5128 83.75 3.25 74.6568 3.25 63.5H0.75C0.75 76.0914 11.1866 86.25 24 86.25V83.75ZM3.25 63.5C3.25 52.3432 12.5128 43.25 24 43.25V40.75C11.1866 40.75 0.75 50.9086 0.75 63.5H3.25ZM24 43.25C24.4886 43.25 24.9731 43.2665 25.4529 43.2988L25.6211 40.8045C25.0853 40.7684 24.5448 40.75 24 40.75V43.25ZM26.7673 41.8306C26.4275 39.9394 26.25 37.991 26.25 36H23.75C23.75 38.1399 23.9408 40.2362 24.3067 42.2727L26.7673 41.8306ZM26.25 36C26.25 17.9127 40.9127 3.25 59 3.25V0.75C39.532 0.75 23.75 16.532 23.75 36H26.25ZM59 3.25C73.438 3.25 85.6969 12.5936 90.0536 25.5674L92.4236 24.7716C87.7353 10.8104 74.5441 0.75 59 0.75V3.25ZM91.3686 26.4127C92.397 26.3052 93.4417 26.25 94.5 26.25V23.75C93.3548 23.75 92.2233 23.8097 91.1086 23.9263L91.3686 26.4127ZM94.5 26.25C110.674 26.25 123.75 39.1412 123.75 55H126.25C126.25 37.7217 112.015 23.75 94.5 23.75V26.25ZM123.75 55C123.75 70.0705 111.945 82.5317 96.9006 83.7321L97.0994 86.2242C113.406 84.923 126.25 71.4108 126.25 55H123.75ZM95.75 84.9782V85H98.25V84.9782H95.75ZM97 83.75H40.5078V86.25H97V83.75ZM35.996 83.75H29.0314V86.25H35.996V83.75Z" fill="#494949"/>
<path fill-rule="evenodd" clip-rule="evenodd" d="M48.6123 9.34263C48.6123 41.5657 77.6328 68.118 115 71.7029C110.317 77.4611 103.086 81.3675 94.8469 81.9813V82H27.7431C19.6013 82 6 78.5697 6 63.5483C6 48.527 16.5742 45.0967 27.7431 45.0967C28.218 45.0967 28.6891 45.1116 29.1559 45.141C28.8316 43.4556 28.7746 41.7184 28.6623 39.9474C27.9038 27.9842 33.1229 12.907 48.6304 8C48.618 8.44733 48.6123 8.89443 48.6123 9.34263Z" fill="#494949" fill-opacity="0.05"/>
<path d="M68.9999 14C75.5088 15.7226 80.6481 20.8129 82.4402 27.2932" stroke="#494949" stroke-width="2.5" stroke-linecap="round"/>
<path d="M40 46.5C40 50.0899 43.134 53 47 53C50.866 53 54 50.0899 54 46.5" stroke="#494949" stroke-width="2.5" stroke-linecap="round"/>
<path d="M69 46.5C69 50.0899 72.134 53 76 53C79.866 53 83 50.0899 83 46.5" stroke="#494949" stroke-width="2.5" stroke-linecap="round"/>
<path d="M54 65H68.5" stroke="#494949" stroke-width="2.5" stroke-linecap="round"/>
</svg>
