<svg width="96" height="96" viewBox="0 0 96 96" fill="none" xmlns="http://www.w3.org/2000/svg">
<rect width="96" height="96" rx="48" fill="#1F1DD8"/>
<path d="M67 35.094V57.475H57.212C55.0472 51.9932 53.9299 46.1507 53.9299 40.2499V29.1816H48.1572C47.9943 29.1816 47.843 29.1816 47.6684 29.1816H42.0819V40.2499C42.0819 46.1507 40.9646 51.9932 38.7998 57.475H29.0001V35.5479C29.0001 25.8414 36.088 17.3452 45.7364 16.2279C57.212 14.9011 66.9768 23.8745 66.9768 35.094H67Z" fill="white"/>
<path d="M63.8227 64.0973L57.1073 61.4554C54.1511 60.2915 51.8234 57.9522 50.6595 55.0076L48.0176 48.2921L45.3756 55.0076C44.2118 57.9638 41.8724 60.2915 38.9278 61.4554L32.2124 64.0973L38.9278 66.7393C41.884 67.9031 44.2118 70.2425 45.3756 73.187L48.0176 79.9025L50.6595 73.187C51.8234 70.2308 54.1627 67.9031 57.1073 66.7393L63.8227 64.0973Z" fill="white"/>
</svg>
